<svg width="80" height="80" viewBox="0 0 80 80" fill="none" xmlns="http://www.w3.org/2000/svg">
<circle cx="40" cy="40" r="40" fill="#FEBF4C" fill-opacity="0.2"/>
<path d="M44.1667 19.166H27.5C25.2083 19.166 23.3333 21.041 23.3333 23.3327V56.666C23.3333 58.9577 25.1875 60.8327 27.4792 60.8327H52.5C54.7917 60.8327 56.6667 58.9577 56.6667 56.666V31.666L44.1667 19.166Z" fill="#FEBF4C"/>
<path d="M44 32V20L56 32H44Z" fill="white"/>
<path d="M38.5417 53.9798C38.9375 54.3757 39.4583 54.584 40.0208 54.584C40.5833 54.584 41.0833 54.3757 41.4792 53.959C41.875 53.5423 42.0833 53.0423 42.0833 52.4798C42.0833 51.9173 41.875 51.4173 41.5 51.0215C41.0833 50.6257 40.6042 50.4173 40.0208 50.4173H39.9792C38.8333 50.4382 37.9167 51.3548 37.9375 52.5007C37.9375 53.084 38.125 53.5632 38.5417 53.9798Z" fill="white"/>
<path d="M38.7917 46.6257C38.3958 47.2923 38.1875 48.1048 38.1875 49.0423H42.046C42.0939 48.5834 42.2106 48.179 42.3958 47.8548C42.6458 47.4173 43.0833 46.8757 43.75 46.2507C44.6042 45.459 45.1667 44.709 45.6042 43.9798C46.0417 43.2507 46.25 42.3965 46.25 41.3757C46.25 40.3548 46 39.4173 45.4583 38.5632C44.9167 37.709 44.2292 37.0423 43.2708 36.5632C42.3125 36.084 41.2292 35.834 40 35.834C38.4375 35.834 36.9375 36.4173 35.7708 37.4798C34.7083 38.4798 33.75 39.9798 33.75 42.084H37.2708C37.2708 40.9798 37.6667 40.459 38.1042 40.0423C38.5625 39.6257 39.3333 39.4173 40.1042 39.4173C40.8333 39.4173 41.4375 39.6257 41.875 40.0423C42.3125 40.4798 42.5417 40.9798 42.5417 41.584C42.5417 42.084 42.4167 42.5215 42.1458 42.9173C41.875 43.3131 41.4583 43.7715 40.875 44.2923C39.8958 45.1673 39.1875 45.9382 38.7917 46.6257Z" fill="white"/>
</svg>
